<?xml version="1.0" encoding="UTF-8"?>
<!DOCTYPE svg PUBLIC "-//W3C//DTD SVG 1.1//EN" "http://www.w3.org/Graphics/SVG/1.1/DTD/svg11.dtd">
<!-- Creator: CorelDRAW 2020 (64-Bit) -->
<svg xmlns="http://www.w3.org/2000/svg" xml:space="preserve" width="1267px" height="1273px" version="1.1" style="shape-rendering:geometricPrecision; text-rendering:geometricPrecision; image-rendering:optimizeQuality; fill-rule:evenodd; clip-rule:evenodd"
viewBox="0 0 61.98 62.28"
 xmlns:xlink="http://www.w3.org/1999/xlink"
 xmlns:xodm="http://www.corel.com/coreldraw/odm/2003">
 <defs>
  <style type="text/css">
   <![CDATA[
    .fil0 {fill:#6F2232}
    .fil1 {fill:#C3083F}
   ]]>
  </style>
 </defs>
 <g id="Layer_x0020_1">
  <metadata id="CorelCorpID_0Corel-Layer"/>
  <path class="fil0" d="M31.91 15.07c0.21,0.4 0.47,0.98 1.01,1.25 0.1,0.05 0.4,0.53 1.75,0.05 -0.05,-1.69 -2.29,-3.67 -3.82,-4.15 -1.43,0.8 -3.48,2.43 -3.62,4.48 2.2,-0.31 0.63,-0.03 1.71,-0.68l0.89 -0.64c0.06,-0.16 0.2,-0.15 0.32,-0.21l0.01 38.05 -2.4 -1.9c-4.64,-4.74 -26.07,-26.41 -27.36,-26.94 -1.02,1.41 3.46,4.89 6.04,7.43 2.63,2.61 20.96,20.02 22.08,22.85 -5.22,0.03 -10.45,0.02 -15.67,0.02 -1.77,0 -12.8,-0.91 -12.85,1.01 0.51,0.35 0.14,0.23 1.04,0.45 0.5,0.12 0.27,0.06 0.81,0.11 0.3,0.03 1.4,0 1.77,-0.01l26.44 -0.03c0.42,5.41 -0.93,5.39 1.53,6.07l0.22 -6.05 27.27 -0.04c-1.08,1.58 -1.56,0.84 -1.37,2.94 1.59,-0.14 3.73,-2.49 4.27,-3.87 -0.98,-1.14 -2.58,-3.35 -4.34,-3.5 -0.06,2.41 0.38,1.22 1.36,2.9l-25.84 -0.02 22.25 -22.26c2.26,-2.26 6.43,-5.59 6.56,-7.7 -1.26,-0.33 -1.8,0.08 -2.7,1.03l-27.55 27.6 0.19 -38.24z"/>
  <path class="fil1" d="M21.08 5.24c0.11,-3.87 0.39,-4.63 -1.09,-5.13l-0.81 2.67c-0.02,-0.06 -0.11,0.23 -0.18,0.33 -1.83,-0.77 -0.4,-1.28 -1.49,-2.95 -1.15,0.42 -1.46,2.11 -0.94,3.6 0.6,1.7 2.09,-0.26 2.96,1.88 -1.32,0.88 -1.74,0.22 -2.99,0.97 0.67,1.77 4.05,1.53 4.45,-0.18 0.08,-0.33 0.08,-0.84 0.09,-1.19z"/>
  <path class="fil1" d="M40.08 1.72c-1.34,-1.41 -0.17,-1.55 -1.83,-1.54 -0.35,0.48 -0.3,0.11 -0.28,1 0.03,1.2 1,1.65 1,2.7 0,1.63 -1.79,1.8 -0.63,3.7 1.3,-0.11 0.59,-0.39 1.74,-1.55 1.34,1.97 0.01,1.03 1.75,1.56 0.92,-2 -0.7,-2.02 -0.73,-3.74 -0.02,-1.53 1.56,-1.86 0.73,-3.71 -1.72,0.59 -0.43,-0.27 -1.75,1.58z"/>
  <path class="fil1" d="M45.32 0c-1.78,0.71 -1.56,-1.21 -1.53,3.88 0.03,3.4 -0.3,2.41 0.68,3.75 0.97,-0.66 0.93,0.98 0.89,-3.75 -0.01,-1.3 0,-2.64 -0.04,-3.88z"/>
  <path class="fil1" d="M34.71 5.2c0,0.41 -0.03,0.92 0.04,1.31 0.16,0.88 0.19,0.58 0.5,1.1 1.47,-0.73 0.64,1.07 1.08,-1.48l-0.04 -4.5c-0.23,-2.32 0.09,-0.81 -0.59,-1.55 -1.59,0.57 -0.98,0.91 -0.99,5.12z"/>
  <path class="fil1" d="M30.14 5.2c-0.57,-0.38 0.27,-0.33 -1.47,-0.62 -3.4,-0.59 -2.96,0.93 -3.1,1.26 0.72,0.3 1.52,0.48 2.67,0.4 2.37,-0.16 1.32,0.01 1.9,-1.04z"/>
  <path class="fil1" d="M30.14 2.56c-0.6,-1.12 -0.12,-1.1 -2.37,-1.06 -2.23,0.03 -1.61,-0.06 -2.21,1.28 0.82,0.39 0.91,0.43 2.2,0.42 0.15,0 1.19,-0.08 1.33,-0.11 0.78,-0.17 0.6,-0.24 1.05,-0.53z"/>
 </g>
</svg>
