<?xml version="1.0" encoding="UTF-8"?>
<!DOCTYPE svg PUBLIC "-//W3C//DTD SVG 1.1//EN" "http://www.w3.org/Graphics/SVG/1.1/DTD/svg11.dtd">
<!-- Creator: CorelDRAW 2020 (64-Bit) -->
<svg xmlns="http://www.w3.org/2000/svg" xml:space="preserve" width="1184px" height="1182px" version="1.1" style="shape-rendering:geometricPrecision; text-rendering:geometricPrecision; image-rendering:optimizeQuality; fill-rule:evenodd; clip-rule:evenodd"
viewBox="0 0 60.61 60.52"
 xmlns:xlink="http://www.w3.org/1999/xlink"
 xmlns:xodm="http://www.corel.com/coreldraw/odm/2003">
 <defs>
  <style type="text/css">
   <![CDATA[
    .fil0 {fill:#6F2232}
    .fil1 {fill:#C3083F}
   ]]>
  </style>
 </defs>
 <g id="Layer_x0020_1">
  <metadata id="CorelCorpID_0Corel-Layer"/>
  <g id="_2401104320480">
   <path class="fil0" d="M3.05 4.84c-0.77,2.17 -0.35,20.76 -0.2,26.06 0.25,8.85 -0.32,17.9 0,26.8 11.04,0.62 34.3,0.04 47.74,0.06 7.79,0.02 5.19,0.56 5.87,-1.48l-52.13 -0.1 0.01 -46.29c0.01,-4.63 0.63,-4.74 -0.92,-5.75l-0.37 0.7z"/>
   <path class="fil1" d="M34.03 7.41l4.31 0.14c0.2,7.84 0.02,15.91 0.02,23.78 0,20.1 1.63,19.17 -4.36,18.98l0.03 -42.9zm5.48 44.18c0.72,-1.55 0.82,-41.55 0.21,-45.65l-7.15 0.08c-0.43,4.02 -0.45,43.54 0.17,45.8l6.77 -0.23z"/>
   <path class="fil1" d="M45.75 19.21l4.48 0.05 0.01 31.09 -4.46 0.01 -0.03 -31.15zm5.56 -1c-0.07,-0.06 -0.19,-0.12 -0.25,-0.14l-0.92 -0.29c-0.33,-0.05 -1.3,-0.04 -1.68,-0.05 -4.91,-0.03 -4.18,-0.16 -4.15,4.59l0 24.88c-0.02,4.42 -0.41,4.46 1.52,4.65 0.96,0.1 4.93,0.27 5.59,-0.51 0.57,-0.67 0.64,-32.06 -0.11,-33.13z"/>
   <path class="fil1" d="M22.07 25.14l4.42 0.05 -0.01 25.06 -2.05 0.13 -2.37 -0.02 0.01 -25.22zm-1.35 -0.55c-0.03,0.1 -0.06,0.23 -0.08,0.35l-0.07 12.82c0,15.09 -2.47,14.61 7.15,13.99 0.67,-2.32 0.3,-19.73 0.32,-24.71 0,-2.24 0.05,-2.23 -0.47,-3.3 -1.94,-0.16 -5.07,-0.36 -6.64,0.19l-0.21 0.66z"/>
   <path class="fil1" d="M9.41 39.08l4.3 0.03 0.13 10.3 -4.49 0.03 0.06 -10.36zm-1.43 -0.89c-0.32,2.58 -0.11,7.39 -0.11,10.28 0,2.4 -0.02,2.43 2.37,2.47l3.83 -0.11c0.83,-0.14 0.49,-0.07 0.91,-0.32 0.86,-1.76 0.57,-10.11 0.2,-12.42 -1.57,-0.97 -5.86,-0.91 -7.2,0.1z"/>
   <path class="fil1" d="M0 4.3c1.96,-0.11 2.06,-1.31 3.51,-2.33 0.38,0.4 1.08,1.19 1.53,1.58 2.01,1.77 2.08,0.57 2.13,0.56 -0.13,-1.39 -2.4,-3.43 -3.75,-4.11 -1.05,0.65 -1.28,0.93 -2.12,1.76 -0.84,0.85 -1.31,1 -1.3,2.54z"/>
   <path class="fil1" d="M56.29 59.68c-0.2,2.58 3.48,-1.49 4.32,-2.62 -0.53,-0.86 -3.1,-3.61 -3.69,-3.63 -2.54,-0.07 1.44,3.43 1.62,3.63 -2.19,2.08 -2.16,1.47 -2.25,2.62z"/>
  </g>
 </g>
</svg>
