<?xml version="1.0" encoding="UTF-8"?>
<!DOCTYPE svg PUBLIC "-//W3C//DTD SVG 1.1//EN" "http://www.w3.org/Graphics/SVG/1.1/DTD/svg11.dtd">
<!-- Creator: CorelDRAW 2020 (64-Bit) -->
<svg xmlns="http://www.w3.org/2000/svg" xml:space="preserve" width="1601px" height="1602px" version="1.1" style="shape-rendering:geometricPrecision; text-rendering:geometricPrecision; image-rendering:optimizeQuality; fill-rule:evenodd; clip-rule:evenodd"
viewBox="0 0 71.97 71.98"
 xmlns:xlink="http://www.w3.org/1999/xlink"
 xmlns:xodm="http://www.corel.com/coreldraw/odm/2003">
 <defs>
  <style type="text/css">
   <![CDATA[
    .fil1 {fill:#6F2232}
    .fil0 {fill:#C3083F}
   ]]>
  </style>
 </defs>
 <g id="Layer_x0020_1">
  <metadata id="CorelCorpID_0Corel-Layer"/>
  <g id="_2401085124112">
   <path class="fil0" d="M19.84 36.94c3.44,1.19 4.09,15.35 4.51,18.29 0.36,2.46 1.29,7.77 2.77,8.99 3.44,2.82 4.63,-2.08 5.2,-4.91 1.66,-8.25 2,-21.34 3.1,-30.92 0.97,-8.37 2.04,-8.45 2.07,-8.64 0.03,-0.17 0.16,-0.19 0.24,-0.28 3.03,3.07 3.92,28.88 4.73,35.38 0.29,2.25 1.07,9.39 3.4,10.03 4.96,1.35 5.55,-16.59 5.84,-20.32 0.45,-6.06 0.69,-17.4 3.6,-21.66 3.31,3.01 4.63,25.72 5.52,32.89 0.79,6.35 0.73,8.76 4.1,9.18 -0.35,-2.06 -1.29,-2.91 -1.79,-5.8 -1.57,-8.99 -2.31,-40.45 -8.71,-37.86 -3.68,1.49 -4.1,17.92 -4.31,20.69 -0.3,3.87 -0.65,7.79 -1.11,11.61 -0.33,2.69 -0.36,7.98 -2.79,9.55 -2.58,-5.1 -2.77,-17.09 -3.32,-23.83 -0.27,-3.21 -0.88,-21.78 -5.16,-21.77 -6.35,0.02 -4.2,38.37 -8.46,45.59 -1.56,-0.58 -1.55,-0.81 -2.14,-3.04l-1.94 -12.23c-0.48,-3.98 -1.03,-14.28 -6.1,-12.55 -3.62,1.23 -5.18,17.19 -6.14,22.51 -0.61,3.43 -2.02,5.04 -2.4,7.13 2.62,-0.16 2.45,-0.27 3.13,-2.43 2.38,-7.59 2.52,-22.56 6.16,-25.6z"/>
   <path class="fil1" d="M71.97 67.79c-0.71,-1.81 -1.96,-3.1 -3.9,-3.52 -0.39,1.3 -0.07,1.31 0.5,2.39l-63.25 -0.07 0.03 -63.21c1.06,0.66 1.01,0.91 2.41,0.57 -0.54,-2.14 -1.63,-3.13 -3.58,-3.95 -1.88,0.97 -2.8,1.67 -3.22,4.07 2.01,0.36 1.4,0.31 2.51,-0.76l-0.06 63.25c-2.49,0.25 -2.41,-0.54 -3.41,1.23l3.36 0.81c0.14,1.29 0.11,2.41 0.82,3.38 1.84,-1.06 0.89,-0.91 1.28,-3.46l63.2 0c-0.39,0.91 -0.71,1.1 -0.78,2.11 0.13,0.04 0.32,0.06 0.42,0.06l0.79 -0.01c0.11,-0.02 0.26,-0.06 0.37,-0.1 1.16,-0.4 1.9,-1.65 2.51,-2.79z"/>
  </g>
 </g>
</svg>
