<?xml version="1.0" encoding="UTF-8"?>
<!DOCTYPE svg PUBLIC "-//W3C//DTD SVG 1.1//EN" "http://www.w3.org/Graphics/SVG/1.1/DTD/svg11.dtd">
<!-- Creator: CorelDRAW 2020 (64-Bit) -->
<svg xmlns="http://www.w3.org/2000/svg" xml:space="preserve" width="2130px" height="2130px" version="1.1" style="shape-rendering:geometricPrecision; text-rendering:geometricPrecision; image-rendering:optimizeQuality; fill-rule:evenodd; clip-rule:evenodd"
viewBox="0 0 228.21 228.21"
 xmlns:xlink="http://www.w3.org/1999/xlink"
 xmlns:xodm="http://www.corel.com/coreldraw/odm/2003">
 <defs>
  <style type="text/css">
   <![CDATA[
    .fil0 {fill:#6F2232}
    .fil1 {fill:#C3083F}
   ]]>
  </style>
 </defs>
 <g id="Layer_x0020_1">
  <metadata id="CorelCorpID_0Corel-Layer"/>
  <g id="_2401101385216">
   <path class="fil0" d="M147.73 228.09c4.35,-3.52 2.49,-3.25 2.97,-11.03l37.31 0.19c3.67,6.98 -2.46,7.43 4.84,10.75 4.55,-5.72 0.64,-4.6 3.22,-10.95l21.64 0.61c-6.69,5.15 -8.15,12.36 -0.85,8.93 0.84,-0.39 9.59,-8.49 11.35,-12.88 -3.44,-4.87 -8.82,-12.45 -16,-13.06 0.18,8.43 2.57,5.63 4.75,10.78l-200.34 0.05 0.49 -200.69c18.9,14.43 8.71,-4.94 -3.13,-10.79 -3.29,1.72 -11.7,8.85 -13.02,12.22 -3.54,9.08 8.31,-0.34 10.24,-1.53l-2.6 21.9c-7.1,2.19 -4.37,-0.16 -8.47,2.6 2.34,5.38 3.72,3.71 11.13,3.66l-0.31 37.89c-4.42,1.56 -7.7,0.29 -10.95,3.19 2.6,5.9 -1.57,0.61 11.25,4.87l-0.04 37.68c-7.33,0.01 -7.38,-1.44 -11.05,2.6 3.4,4.98 -0.68,0.98 4.39,2.73l6.73 2.11 0.01 36.24 -10.86 2.43c2.22,6.87 4.88,1.64 11.03,6.45l-0.15 36.43c-7.72,-0.09 -8.45,-1.74 -11.28,3.74 4.09,2.93 4.42,1.89 10.97,1.84 0.64,10.38 -0.37,8.64 2.98,11.1 3.48,-2.58 2.51,-0.64 3.06,-11.05l38.49 0.18c0.21,8.91 -1.99,8.29 4.57,10.93 4.01,-7.22 0.87,-3.04 1.4,-6.14 0.52,-3.08 -0.4,-1.42 0.82,-4.95l37.07 0.3c2.35,7.66 -2.55,8.2 4.83,10.39 2.59,-4.19 1.56,-5.19 1.85,-10.7l38.52 0.04c0.47,6.55 -1.45,7.96 3.14,10.94z"/>
   <path class="fil1" d="M119.45 143.49c-4.78,-10.08 1.97,-19.62 10.58,-13.7 7.46,5.14 3.46,16.82 -10.58,13.7zm19.08 -2.29c6.78,-15.07 -16.96,-26.51 -25.31,-11.77 -9.94,17.52 17.49,29.18 25.31,11.77z"/>
   <path class="fil1" d="M66.08 107.4c9.59,-6.25 15.93,9.54 8.36,13.75 -7.68,4.27 -15.04,-2.97 -12.53,-9.41 1.65,-4.24 1.12,-2.36 4.17,-4.34zm-10.07 9.63c2.59,16.44 28.98,13.73 27.41,-4.7 -1.52,-17.8 -30.61,-15.63 -27.41,4.7z"/>
   <path class="fil1" d="M154.09 41.04c9.91,-7.23 17.18,7.66 9.55,12.94 -8.67,6 -19.32,-5.82 -9.55,-12.94zm-9.08 8.31c2.17,17.37 30.89,15.1 27.32,-4.7 -2.92,-16.2 -29.68,-14.16 -27.32,4.7z"/>
   <path class="fil1" d="M211.48 78.46c-1,14.03 -13.94,12.27 -16.09,3.94 -1.96,-7.56 8.3,-15.83 16.09,-3.94zm-21.47 6.34c4.26,15.14 31.05,10.93 26.71,-7.58 -3.83,-16.38 -32.15,-11.72 -26.71,7.58z"/>
   <path class="fil1" d="M34.93 194.13c5.14,-1.1 3.48,-0.41 6.17,-6.47 4.65,-10.43 23.27,-50.43 21.32,-55.89 -6.09,1.91 -6.93,7.92 -9.48,14.52 -4.43,11.47 -20.59,41.62 -18.01,47.84z"/>
   <path class="fil1" d="M133.23 118.1c4.75,-3.69 20.6,-47.34 19.52,-52.61 -4.55,1.33 -3.15,-0.68 -5.77,5.57l-8.15 21.06c-4.13,10.28 -10.38,21.97 -5.6,25.98z"/>
   <path class="fil1" d="M210.58 62.65c7.06,-2.84 11.8,-22.19 14.72,-29.25 2.22,-5.36 3.06,-6.38 1.84,-10.29 -4.46,-0.63 -4.36,1.35 -6.78,7.04 -1.54,3.6 -2.85,6.72 -4.23,10.34 -4.92,12.88 -8.62,16.34 -5.55,22.16z"/>
   <path class="fil1" d="M87.81 121.86c2.48,4.6 -1.18,1.19 4.18,4.17 8.43,4.69 12.27,5.72 15.41,2.28 -2.79,-3.94 -3.72,-3.38 -8.85,-5.51 -13.9,-5.77 -9.17,-2.01 -10.74,-0.94z"/>
   <path class="fil1" d="M182.16 61.51c-15.54,-10.67 -5.82,8.15 4.72,8.04 0.19,-0.55 7.04,0.04 -4.72,-8.04z"/>
  </g>
 </g>
</svg>
