<?xml version="1.0" encoding="UTF-8"?>
<!DOCTYPE svg PUBLIC "-//W3C//DTD SVG 1.1//EN" "http://www.w3.org/Graphics/SVG/1.1/DTD/svg11.dtd">
<!-- Creator: CorelDRAW 2020 (64-Bit) -->
<svg xmlns="http://www.w3.org/2000/svg" xml:space="preserve" width="1285px" height="1285px" version="1.1" style="shape-rendering:geometricPrecision; text-rendering:geometricPrecision; image-rendering:optimizeQuality; fill-rule:evenodd; clip-rule:evenodd"
viewBox="0 0 43.18 43.19"
 xmlns:xlink="http://www.w3.org/1999/xlink"
 xmlns:xodm="http://www.corel.com/coreldraw/odm/2003">
 <defs>
  <style type="text/css">
   <![CDATA[
    .fil0 {fill:#6F2232}
    .fil1 {fill:#C3083F}
   ]]>
  </style>
 </defs>
 <g id="Layer_x0020_1">
  <metadata id="CorelCorpID_0Corel-Layer"/>
  <g id="_2365337983232">
   <path class="fil0" d="M0 21.25c0.53,0.74 -0.69,0.39 0.91,0.87l20.01 0c0.99,3.54 -0.6,19.04 0.47,21.07 0.98,-0.35 0.76,-0.38 0.78,-1.69l-0.02 -19.39 13.53 0c0.56,0 1.66,0.07 2.14,0.03 1.3,-0.11 0.92,-0.07 1.21,-0.86 -1.77,-0.69 -13.78,-0.21 -16.86,-0.24l-0.03 -13.42c0,-0.55 0.08,-1.69 0.05,-2.15 -0.12,-1.72 0.01,-0.99 -1.08,-1.32l-0.04 16.89c-3.33,0 -19.4,-0.42 -21.07,0.21z"/>
   <path class="fil1" d="M18.2 25.42c-2.66,-3.02 -12.96,-2.5 -13.91,-1.94 0.28,0.36 -0.79,0.64 1.19,0.78 2.57,0.17 9.36,-0.52 11.66,1.6 2.86,2.63 1.01,10.38 2.08,13.1 0.9,-0.24 0.74,-0.02 0.85,-1.13 0.22,-2.43 -0.01,-10.3 -1.87,-12.41z"/>
   <path class="fil1" d="M23.48 4.27c-0.67,1.31 -0.28,5.97 -0.11,7.67 0.72,7.49 5.1,7.82 12.61,8.05 0.32,0.01 1.91,0.07 2.12,0.03 1.22,-0.23 0.65,-0.05 0.93,-0.87 -3.19,-1.04 -9.82,0.63 -12.85,-2.33 -1.88,-1.83 -1.96,-6.99 -1.93,-9.82 0.04,-3.74 0.05,-2.53 -0.77,-2.73z"/>
   <path class="fil0" d="M41.06 20.17c-1.83,-0.33 -0.33,-0.13 -0.99,0.22 0.22,0.92 0.32,0.44 1.1,1.26 -0.81,0.59 -1.11,0.56 -0.95,1.21 0.54,0.28 -0.74,0.42 0.77,0.15 0.76,-0.14 1.75,-0.9 2.19,-1.36 -0.3,-0.57 -1.24,-1.33 -2.12,-1.48z"/>
   <path class="fil0" d="M20.08 3.09c0.32,-0.04 0.17,0.42 1.26,-0.69l0.31 -0.35c0.88,1.21 0.15,0.74 1.22,1.05 0.51,-1.04 -0.54,-2.53 -1.22,-3.1 -0.96,0.52 -1.47,2 -1.57,3.09z"/>
  </g>
 </g>
</svg>
