<?xml version="1.0" encoding="UTF-8"?>
<!DOCTYPE svg PUBLIC "-//W3C//DTD SVG 1.1//EN" "http://www.w3.org/Graphics/SVG/1.1/DTD/svg11.dtd">
<!-- Creator: CorelDRAW 2020 (64-Bit) -->
<svg xmlns="http://www.w3.org/2000/svg" xml:space="preserve" width="1213px" height="1213px" version="1.1" style="shape-rendering:geometricPrecision; text-rendering:geometricPrecision; image-rendering:optimizeQuality; fill-rule:evenodd; clip-rule:evenodd"
viewBox="0 0 48.39 48.37"
 xmlns:xlink="http://www.w3.org/1999/xlink"
 xmlns:xodm="http://www.corel.com/coreldraw/odm/2003">
 <defs>
  <style type="text/css">
   <![CDATA[
    .fil0 {fill:#6F2232}
    .fil1 {fill:#C3083F}
   ]]>
  </style>
 </defs>
 <g id="Layer_x0020_1">
  <metadata id="CorelCorpID_0Corel-Layer"/>
  <g id="_2401100847392">
   <path class="fil0" d="M13.79 35.41c0.43,0.32 0.03,-0.03 0.59,0.49 2.61,2.43 4.25,7.88 4.36,11.27l-16.69 -0.1 11.74 -11.66zm1.06 -0.98c1.13,-1.62 26.29,-26.34 29.9,-30.05 1.64,-1.69 3.69,-3.06 3.46,-4.37 -1.32,-0.24 -4.7,3.82 -6.42,5.53l-36.5 36.49c-1.11,1.08 -2.02,1.99 -3.09,3.09 -1.24,1.28 -3.82,3 -0.76,3.25 0.29,0.02 1.04,-0.01 1.37,-0.01l43.22 0c2.84,0.03 2.11,-0.25 2.36,-0.57 -0.61,-0.88 0.18,-0.5 -1.33,-0.65l-27.11 -0.01c-0.42,-7.06 -2.26,-8.57 -5.1,-12.7z"/>
   <path class="fil1" d="M33.58 31.92c1.24,-0.19 2.59,-0.12 3.87,-0.09 3.92,0.07 2.81,-0.12 3.13,-0.83 -1.19,-0.75 -6.52,-0.62 -8.13,-0.2 -0.39,2.18 -0.54,6.09 0.07,7.88 1.76,0.61 4.73,0.11 6.89,0.29l0.01 5.75c-1.33,0.14 -2.7,0.1 -4.04,0.08 -0.31,0 -1.87,-0.04 -2.04,-0.01 -1.41,0.27 -0.75,0.01 -1.01,1.15l7.9 -0.03c0.17,-0.29 0.2,-0.27 0.34,-0.87l-0.02 -7.33 -7.03 -0.08 0.06 -5.71z"/>
   <path class="fil1" d="M23.73 30.71c-0.76,0.15 -0.94,-0.29 -0.89,2.32 0.13,7.38 -1.47,5.89 7.07,5.86 0.04,2.12 -0.24,5.9 0.36,7.09 1.13,-0.41 0.87,-0.37 0.88,-1.92l-0.03 -9.29c0,-4.26 0.32,-3.81 -1.12,-4.18l-0.23 7.09 -5.67 0.02 -0.37 -6.99z"/>
   <path class="fil1" d="M43.27 28.74c-1.13,-1.32 -1.07,-2.16 1.08,-2.14 0.66,1.12 0.62,2.04 -1.08,2.14zm-1.89 -0.48c0.59,3.13 5.34,1.82 4.58,-1.28 -0.68,-2.77 -5.17,-1.82 -4.58,1.28z"/>
  </g>
 </g>
</svg>
