<?xml version="1.0" encoding="UTF-8"?>
<!DOCTYPE svg PUBLIC "-//W3C//DTD SVG 1.1//EN" "http://www.w3.org/Graphics/SVG/1.1/DTD/svg11.dtd">
<!-- Creator: CorelDRAW 2020 (64-Bit) -->
<svg xmlns="http://www.w3.org/2000/svg" xml:space="preserve" width="1265px" height="406px" version="1.1" style="shape-rendering:geometricPrecision; text-rendering:geometricPrecision; image-rendering:optimizeQuality; fill-rule:evenodd; clip-rule:evenodd"
viewBox="0 0 958.56 307.57"
 xmlns:xlink="http://www.w3.org/1999/xlink"
 xmlns:xodm="http://www.corel.com/coreldraw/odm/2003">
 <defs>
  <style type="text/css">
   <![CDATA[
    .fil1 {fill:#C3083F;fill-rule:nonzero}
    .fil0 {fill:white;fill-rule:nonzero}
   ]]>
  </style>
 </defs>
 <g id="Layer_x0020_1">
  <metadata id="CorelCorpID_0Corel-Layer"/>
  <path class="fil0" d="M85.59 223.73l-17.73 0 0 -99.45 17.73 0 0 17.73c10.69,-13 21.9,-19.51 33.76,-19.51 11.82,0 21.29,3.56 28.42,10.64 4.73,4.74 7.08,10.35 7.08,16.86l0 73.73 -17.73 0 0 -68.38c0,-5.35 -1.78,-9.78 -5.34,-13.34 -3.56,-3.52 -8.57,-5.3 -15.08,-5.3 -5.95,0 -11.86,2.95 -17.77,8.86 -8.87,8.9 -13.34,18.38 -13.34,28.42l0 49.74z"/>
  <path id="1" class="fil0" d="M178.83 173.99c0,-15.99 5.04,-28.99 15.12,-39.07 8.26,-8.29 18.94,-12.42 31.94,-12.42 12.46,0 23.11,4.43 31.98,13.3 8.29,8.29 12.42,21.02 12.42,38.19l-71.91 0c0,12.42 2.96,21.59 8.87,27.54 5.34,5.31 12.16,8 20.42,8 8.3,0 14.21,-1.79 17.77,-5.35 4.13,-4.13 6.21,-8.86 6.21,-14.2l19.55 0c-2.38,10.64 -6.21,18.64 -11.55,23.98 -7.69,7.69 -18.34,11.55 -31.98,11.55 -14.21,0 -25.73,-4.47 -34.63,-13.33 -9.47,-9.47 -14.21,-22.2 -14.21,-38.19zm46.19 -36.41c-7.09,0 -13.04,2.38 -17.77,7.12 -4.13,4.13 -6.78,9.17 -8,15.08l50.62 0c0,-5.91 -2.35,-11.25 -7.08,-15.99 -4.17,-4.13 -10.08,-6.21 -17.77,-6.21z"/>
  <path id="2" class="fil0" d="M291.62 173.99c0,-15.38 5.04,-28.11 15.08,-38.19 8.91,-8.87 19.86,-13.3 32.85,-13.3 13.03,0 23.98,4.43 32.89,13.3 10.04,10.08 15.08,22.81 15.08,38.19 0,15.38 -5.04,28.11 -15.08,38.19 -8.91,8.86 -19.86,13.33 -32.89,13.33 -12.99,0 -23.94,-4.47 -32.85,-13.33 -10.04,-10.08 -15.08,-22.81 -15.08,-38.19zm47.93 -35.5c-7.08,0 -12.99,2.35 -17.73,7.08 -7.12,7.12 -10.68,16.6 -10.68,28.42 0,11.86 3.25,21.02 9.77,27.54 5.34,5.31 11.56,8 18.64,8 7.12,0 13.34,-2.69 18.68,-8 6.52,-6.52 9.74,-15.68 9.74,-27.54 0,-11.82 -3.53,-21.3 -10.65,-28.42 -4.74,-4.73 -10.65,-7.08 -17.77,-7.08z"/>
  <path id="3" class="fil0" d="M428.36 223.73l-17.73 0 0 -99.45 17.73 0 0 15.08c7.69,-11.25 16.59,-16.86 26.63,-16.86 11.26,0 19.86,2.95 25.77,8.86 2.95,2.96 5.34,6.22 7.12,9.78 7.69,-12.43 18.34,-18.64 31.94,-18.64 9.47,0 16.9,2.65 22.2,7.99 5.95,5.91 8.91,12.43 8.91,19.51l0 73.73 -17.77 0 0 -70.16c0,-3.57 -1.18,-6.52 -3.57,-8.87 -3.56,-3.56 -7.69,-5.34 -12.42,-5.34 -8.3,0 -15.08,2.65 -20.42,7.99 -4.74,4.74 -7.09,9.17 -7.09,13.34l0 63.04 -17.77 0 0 -69.26c0,-3.56 -1.78,-7.12 -5.34,-10.68 -2.96,-2.95 -7.39,-4.43 -13.3,-4.43 -6.52,0 -12.16,2.38 -16.9,7.12 -5.3,5.31 -7.99,10.34 -7.99,15.08l0 62.17z"/>
  <path id="4" class="fil0" d="M576.65 153.57c1.78,-8.3 5.65,-15.39 11.56,-21.3 6.51,-6.51 15.99,-9.77 28.41,-9.77 14.78,0 25.46,3.26 31.98,9.77 5.91,5.91 8.86,12.73 8.86,20.42l0 55.93c0,6.51 2.35,11.55 7.09,15.11l-21.29 0c-2.39,-2.38 -3.56,-6.21 -3.56,-11.55 -8.87,8.86 -20.12,13.33 -33.72,13.33 -11.26,0 -19.86,-2.99 -25.77,-8.9 -5.34,-5.3 -7.99,-11.56 -7.99,-18.64 0,-8.3 2.65,-15.08 7.99,-20.42 5.91,-5.91 14.21,-9.78 24.86,-11.56 7.12,-1.17 13.33,-2.65 18.64,-4.43 7.69,-1.78 13.03,-3.56 15.99,-5.34 0,-4.74 -1.79,-8.87 -5.31,-12.43 -3.56,-3.52 -8.6,-5.3 -15.12,-5.3 -8.29,0 -14.2,1.78 -17.76,5.3 -2.35,2.39 -4.13,5.65 -5.31,9.78l-19.55 0zm63.05 19.55c-3.57,1.17 -6.79,2.04 -9.78,2.65 -10.04,2.39 -17.73,4.13 -23.07,5.34 -4.74,1.17 -8.3,2.96 -10.65,5.3 -2.95,2.96 -4.43,6.22 -4.43,9.78 0,4.13 1.48,7.69 4.43,10.65 1.78,1.78 5.61,2.69 11.52,2.69 10.08,0 18.37,-3.26 24.89,-9.78 4.13,-4.17 6.52,-7.12 7.09,-8.9l0 -17.73z"/>
  <path id="5" class="fil0" d="M693.87 89.65l17.74 0 0 34.63 30.19 0 0 14.21 -30.19 0 0 57.7c0,3.56 1.47,6.82 4.43,9.77 2.39,2.35 6.25,3.57 11.55,3.57 8.3,0 15.69,-2.09 22.21,-6.22l0 16.86c-6.52,3.56 -13.61,5.34 -21.3,5.34 -11.86,0 -20.42,-2.69 -25.76,-7.99 -5.91,-5.95 -8.87,-12.47 -8.87,-19.55l0 -59.48 -21.33 0 0 -14.21 21.33 0 0 -34.63z"/>
  <path id="6" class="fil0" d="M767.53 72.75l17.77 0 0 23.11 -17.77 0 0 -23.11zm0 51.53l17.77 0 0 99.45 -17.77 0 0 -99.45z"/>
  <polygon id="7" class="fil0" points="811.97,71.88 829.7,71.88 829.7,167.77 873.23,124.28 895.44,124.28 861.68,158 902.52,223.73 883.88,223.73 850.16,169.55 829.7,189.98 829.7,223.73 811.97,223.73 "/>
  <polygon class="fil1" points="0.51,129.34 0.51,0 958.56,0 958.56,128.33 933.3,128.33 933.3,25.26 25.76,25.26 25.76,129.34 "/>
  <polygon class="fil1" points="25.26,188.33 25.26,282.31 932.8,282.31 932.8,188.84 958.05,188.84 958.05,307.57 0,307.57 0,188.33 "/>
 </g>
</svg>
