<?xml version="1.0" encoding="UTF-8"?>
<!DOCTYPE svg PUBLIC "-//W3C//DTD SVG 1.1//EN" "http://www.w3.org/Graphics/SVG/1.1/DTD/svg11.dtd">
<!-- Creator: CorelDRAW 2020 (64-Bit) -->
<svg xmlns="http://www.w3.org/2000/svg" xml:space="preserve" width="11312px" height="4661px" version="1.1" style="shape-rendering:geometricPrecision; text-rendering:geometricPrecision; image-rendering:optimizeQuality; fill-rule:evenodd; clip-rule:evenodd"
viewBox="0 0 3345.64 1378.46"
 xmlns:xlink="http://www.w3.org/1999/xlink"
 xmlns:xodm="http://www.corel.com/coreldraw/odm/2003">
 <defs>
  <style type="text/css">
   <![CDATA[
    .fil1 {fill:#6F2232}
    .fil0 {fill:#C3083F}
   ]]>
  </style>
 </defs>
 <g id="Layer_x0020_1">
  <metadata id="CorelCorpID_0Corel-Layer"/>
  <path class="fil0" d="M3287.17 142.08c0.01,0.05 0.62,9.9 0.62,10.1 0,0.16 -0.8,9.5 -0.83,9.64 -1.43,7.05 -0.73,2.91 -3.43,6.68 -9.09,-3.18 -8.22,2.48 -8.4,-16.34 -0.22,-21.74 -0.49,-14.3 8.4,-18.28 1.94,3.25 2.27,1.8 3.64,8.2zm-321.03 24.18c-0.39,-0.97 -1.51,-0.76 -2.15,-1.3 5.47,-9.06 18.65,-8.09 32.93,-8.15l240.05 0.16c29.77,-0.64 24.41,0.56 27.19,8.45 -12.2,6.62 -223.75,3.92 -267.27,3.54 -4.6,-0.04 -29.18,1.2 -30.75,-2.7zm332.54 -32.46l18.24 -0.49 16.19 2.62 -2.03 31.98 -32.09 0.66 -0.31 -34.77zm-398.39 18.39c7.91,-5.87 22.94,-10.39 33.38,-13.63 18.38,-5.71 21.78,0.73 28.14,14.2l-15.32 15.07 -46.2 -15.64zm64.78 -11.46c7.63,-8.02 -12.08,-7.35 38.51,-6.99l233.39 -0.13c36.6,-0.8 26.22,0.7 26.86,11.57l-216.92 -0.01c-25.07,0 -65.47,5.64 -81.84,-4.44zm-81.85 18.53c2.2,1.02 9.48,3.31 12.45,4.27 34.12,11.04 41.99,16.16 77.91,16.3 64.46,0.24 342.95,4.97 368.14,-2.91 4.32,-15.06 4.31,-35.84 1.06,-51.09 -21.65,-8.78 -207.65,-3.63 -249.21,-3.67 -39.54,-0.04 -198.42,-8.58 -220.62,29.93l10.27 7.17z"/>
  <g id="_2365339198784">
   <path class="fil0" d="M519.21 958.56c22.66,7.86 26.91,101 29.72,120.39 2.34,16.18 8.44,51.08 18.23,59.11 22.61,18.56 30.44,-13.68 34.18,-32.27 10.92,-54.29 13.16,-140.45 20.43,-203.46 6.36,-55.1 13.38,-55.65 13.61,-56.9 0.2,-1.11 1.03,-1.24 1.58,-1.84 19.95,20.25 25.77,190.07 31.14,232.83 1.86,14.82 7.04,61.79 22.37,65.97 32.59,8.89 36.51,-109.15 38.37,-133.68 3.02,-39.9 4.56,-114.5 23.69,-142.52 21.8,19.79 30.49,169.23 36.35,216.42 5.19,41.8 4.82,57.65 26.95,60.4 -2.3,-13.57 -8.45,-19.13 -11.77,-38.19 -10.3,-59.15 -15.15,-266.12 -57.28,-249.07 -24.2,9.8 -27,117.92 -28.39,136.13 -1.93,25.42 -4.26,51.23 -7.3,76.38 -2.14,17.71 -2.35,52.51 -18.32,62.86 -16.98,-33.57 -18.23,-112.5 -21.9,-156.79 -1.75,-21.15 -5.77,-143.33 -33.91,-143.26 -41.81,0.1 -27.67,252.44 -55.66,299.97 -10.26,-3.85 -10.22,-5.37 -14.12,-19.99l-12.73 -80.51c-3.16,-26.15 -6.81,-93.94 -40.14,-82.59 -23.82,8.11 -34.11,113.12 -40.39,148.16 -4.05,22.54 -13.3,33.13 -15.8,46.92 17.2,-1.08 16.1,-1.82 20.56,-16.02 15.69,-49.95 16.62,-148.43 40.53,-168.45z"/>
   <path class="fil1" d="M862.22 1161.59c-4.63,-11.92 -12.84,-20.41 -25.63,-23.2 -2.57,8.59 -0.49,8.61 3.3,15.74l-416.21 -0.47 0.19 -415.93c7.02,4.35 6.64,5.98 15.84,3.75 -3.49,-14.04 -10.67,-20.57 -23.49,-25.98 -12.42,6.36 -18.45,11.02 -21.2,26.77 13.22,2.4 9.22,2.03 16.51,-4.97l-0.42 416.18c-16.36,1.62 -15.85,-3.59 -22.43,8.11l22.1 5.3c0.92,8.47 0.76,15.83 5.44,22.26 12.07,-6.98 5.81,-6 8.36,-22.78l415.87 -0.03c-2.54,5.99 -4.62,7.26 -5.14,13.94 0.9,0.22 2.15,0.36 2.77,0.35l5.23 -0.05c0.7,-0.14 1.72,-0.39 2.4,-0.63 7.63,-2.64 12.55,-10.89 16.51,-18.36z"/>
  </g>
  <path class="fil1" d="M783.4 230.95l0.44 150.38c13.87,5.59 138.13,2.74 152.15,2.55 4.41,51.28 -37.02,109.91 -87.07,131.07 -41.26,17.45 -92.83,18.34 -132.86,-5.55 -10.65,-6.36 -26.86,-17.45 -32.94,-23.55 -41.62,-41.71 -55.56,-111.78 -31.24,-165.45 24.2,-53.43 70.6,-86.18 131.52,-89.45zm8.67 -8.72c-66.87,-0.84 -120.18,34.53 -147.81,93.21 -26.18,55.58 -11.72,133.67 32.59,176.6 6.3,6.1 23.55,18.62 34.45,24.74 13.27,7.46 26.96,12.8 42.64,16.22 68.08,14.82 126.2,-12.55 164.42,-66.55 16.21,-22.9 29.79,-55.69 26.27,-89.81 -18.55,-4.56 -125.87,-2.01 -152.35,-1.25l-0.21 -153.16z"/>
  <path class="fil0" d="M826.42 197.06c40.71,1.04 56.17,12.08 82.73,28.34 8.44,5.16 11.81,8.8 18.55,15.83 25.33,26.39 41.64,59.88 42.81,99.72l-144.01 0.27 -0.08 -144.16zm-8.12 151.31c24.09,5.49 128.52,1.4 160.84,1.36 1.04,-40.89 -9.69,-64.21 -28.39,-94.52 -23.27,-37.72 -90.24,-75.54 -132.74,-65.66l0.29 158.82z"/>
  <g id="_2365339199552">
   <path class="fil0" d="M1277.9 1087.14l-0.23 -68.17 244.63 348.57c-2.22,0.18 -226.36,3.41 -238.36,-0.12 -7.3,-2.13 -1.43,0.8 -6.34,-3.33 4.84,-8.97 6.03,-1.77 18.16,-8.07 -1.26,-2.71 7.91,0.63 -9.2,-6.56 -10.4,-4.38 -1.9,5.59 -8.9,-4.19 5.35,-9.52 16.85,-2.65 27.66,-4.72 13.83,-2.64 4.19,3.12 9.25,-6.04 -0.7,-0.46 -1.77,-1.85 -2.23,-1.16 -0.46,0.68 -1.63,-0.87 -2.28,-1.05 -19.67,-5.48 -25.15,4.95 -32.49,-5.85 5.81,-8.97 -1.25,-1.57 8.9,-4.67 19.36,-5.91 2.5,3.01 9.71,-3.16 -5.34,-14.78 -10.55,1.81 -18.64,-11 5.07,-7.02 4.83,-4.37 16.69,-4.24 13.21,0.13 12.9,1.34 20.57,-3.82 -5.54,-8.46 -3.95,-6.14 -17.67,-5.98 -1.9,0.02 -9.54,0.47 -10.9,0.26 -7.95,-1.2 -5.15,1.14 -8.71,-5.04 6.33,-7.87 -3.08,0.33 11.3,-4.92l7.4 -3.14c-8.89,-12.34 -13.33,-0.26 -18.57,-10.76 6.86,-5.72 9.65,-3.74 22.35,-3.83 10.58,-0.08 10.9,1.5 14.86,-6.21 -7.01,-4.83 -32.26,-4.11 -33.13,-4.34l-4.09 -1.75c3.37,-8.32 -2.1,-2.11 10.75,-6.86 6.28,-2.31 4.91,1.58 7.65,-6.06 -7.05,-3.85 -6.14,-1.21 -9.91,-2.54 -8.29,-2.92 -5.05,1.86 -8.46,-6.05 7.42,-5.22 6.49,-3.05 22.35,-3.28 11.03,-0.16 11.55,2.01 14.5,-6.32 -10.01,-6.69 -16.84,-1.26 -28.16,-3.15 -9.88,-1.64 -3.39,0.53 -8.73,-3.38 4.55,-10.31 7.99,-2.58 18.29,-8.68 -2.64,-7.92 -1.4,-3.73 -7.52,-5.95 -11.62,-4.23 -7.53,1.48 -10.65,-6.89l19.42 -2.71c11.35,-0.05 10.31,1.8 17.42,-3.51 -3.51,-8.15 -3.63,-6.17 -14.58,-6.25l-16.06 -0.54c-7.1,-1.89 -1.66,0.6 -6.35,-3.12 3.43,-6.92 -1.07,-2.83 6.46,-5.13 2.21,-0.67 9.41,-0.4 12.29,-0.49 -4.26,-12.01 0.35,-4.5 -9.71,-9.47 -5.4,-2.67 -1.4,5.45 -9.05,-3.73 5.24,-10.08 15.9,-3.1 27.68,-5.16 12.3,-2.15 4.15,2.4 9.56,-5.6 -15.25,-10.78 -28.53,3.32 -37.21,-8.06 6.4,-11.12 9.76,-0.93 18.64,-8.04 -3.98,-12.48 -11.05,0 -18.68,-10.79 2.45,-3.88 -0.41,-4.78 16.7,-4.66 18.11,0.14 15.27,1.28 20.56,-3.56 -3.6,-8.88 -4.29,-6.24 -17.68,-6.09 -23.7,0.26 -16.05,1.04 -19.57,-4.51 4.01,-5.85 -0.23,-1.36 6.51,-3.92 0.81,-0.31 3.71,-1.01 4.62,-1.33l7.39 -2.81c-5.33,-8.57 -10.92,-4.5 -18.21,-8.07zm-7.12 -90.48c-6.5,14.3 -2.3,283 -2.31,324.41 -0.02,66.83 -5.65,56.78 25.9,56.45 17.61,-0.18 236.43,3.83 241.87,-3.49 2.73,-3.66 -61.62,-94.65 -71.73,-107.41l-75.84 -107.05c-11.38,-16 -104.53,-158.95 -117.89,-162.91z"/>
   <path class="fil0" d="M1333.54 1195.77c1.28,0.85 17.44,21.72 20.09,25.65 3.93,5.86 4.14,7.92 9.35,14.89l52.4 75.85 -81.52 -0.06 -0.32 -116.33zm-7.82 -20.55c-4.83,13.89 -1.61,117.07 -1.43,145.1 16.11,1.68 87.06,3.85 99,1.11 5.53,-1.27 3.81,-0.89 6.73,-2.72 0.46,-4.87 -92.4,-140.56 -99.55,-143.28 -3.58,-1.36 -3.19,-0.59 -4.75,-0.21z"/>
  </g>
  <g id="_2365339200416">
   <path class="fil1" d="M2253.6 216.27c-4.42,12.56 -2.02,119.92 -1.15,150.56 1.46,51.13 -1.88,103.43 0,154.82 63.76,3.61 198.13,0.21 275.79,0.37 45,0.1 29.96,3.21 33.9,-8.6l-301.16 -0.53 0.07 -267.45c0.05,-26.71 3.62,-27.38 -5.32,-33.19l-2.13 4.02z"/>
   <path class="fil0" d="M2432.56 231.15l24.89 0.79c1.18,45.26 0.15,91.93 0.15,137.37 0,116.1 9.42,110.77 -25.22,109.63l0.18 -247.79zm31.65 255.22c4.19,-8.98 4.78,-240.03 1.23,-263.76l-41.32 0.49c-2.47,23.22 -2.6,251.5 0.97,264.59l39.12 -1.32z"/>
   <path class="fil0" d="M2500.28 299.3l25.89 0.26 0.07 179.62 -25.77 0.05 -0.19 -179.93zm32.14 -5.77c-0.44,-0.34 -1.13,-0.69 -1.46,-0.82l-5.34 -1.69c-1.9,-0.29 -7.46,-0.24 -9.66,-0.25 -28.41,-0.22 -24.18,-0.96 -24,26.49l0.01 143.73c-0.13,25.52 -2.36,25.79 8.79,26.88 5.54,0.55 28.45,1.57 32.27,-2.94 3.3,-3.89 3.72,-185.21 -0.61,-191.4z"/>
   <path class="fil0" d="M2363.45 333.55l25.58 0.28 -0.1 144.78 -11.8 0.77 -13.68 -0.11 0 -145.72zm-7.79 -3.2c-0.13,0.62 -0.34,1.34 -0.45,2.06l-0.37 74.06c0,87.14 -14.27,84.41 41.27,80.81 3.86,-13.41 1.75,-113.96 1.85,-142.78 0.04,-12.93 0.3,-12.83 -2.69,-19.05 -11.22,-0.91 -29.3,-2.08 -38.38,1.09l-1.23 3.81z"/>
   <path class="fil0" d="M2290.35 414.07l24.82 0.18 0.76 59.5 -25.94 0.16 0.36 -59.84zm-8.24 -5.14c-1.87,14.94 -0.64,42.7 -0.67,59.38 -0.01,13.86 -0.13,14.06 13.71,14.3l22.11 -0.63c4.82,-0.84 2.81,-0.44 5.27,-1.89 4.98,-10.15 3.26,-58.39 1.17,-71.75 -9.1,-5.55 -33.87,-5.26 -41.59,0.59z"/>
   <path class="fil0" d="M2235.98 213.18c11.33,-0.67 11.9,-7.58 20.3,-13.5 2.2,2.34 6.24,6.89 8.84,9.17 11.61,10.2 11.98,3.26 12.28,3.18 -0.78,-8.02 -13.87,-19.8 -21.67,-23.71 -6.07,3.75 -7.39,5.34 -12.22,10.18 -4.89,4.89 -7.56,5.77 -7.53,14.68z"/>
   <path class="fil0" d="M2561.16 533.06c-1.12,14.91 20.14,-8.58 24.98,-15.11 -3.07,-4.97 -17.94,-20.87 -21.35,-20.97 -14.66,-0.42 8.34,19.8 9.36,20.97 -12.62,12 -12.49,8.48 -12.99,15.11z"/>
  </g>
  <g id="_2365339201280">
   <path class="fil1" d="M0 187.04c4.71,6.53 -6.1,3.48 8.03,7.66l176.11 0.06c8.73,31.17 -5.24,167.54 4.15,185.43 8.6,-3.04 6.7,-3.32 6.84,-14.86l-0.15 -170.7 119.13 0c4.9,0.02 14.61,0.64 18.84,0.29 11.45,-0.95 8.09,-0.65 10.62,-7.55 -15.58,-6.1 -121.25,-1.92 -148.37,-2.13l-0.3 -118.15c0.02,-4.87 0.74,-14.93 0.46,-18.94 -1.06,-15.11 0.03,-8.75 -9.51,-11.61l-0.34 148.72c-29.37,-0.06 -170.83,-3.72 -185.51,1.78z"/>
   <path class="fil0" d="M160.17 223.74c-23.38,-26.51 -114,-22 -122.37,-17.05 2.41,3.2 -6.98,5.65 10.44,6.83 22.63,1.53 82.38,-4.56 102.66,14.12 25.17,23.17 8.91,91.43 18.26,115.31 7.99,-2.1 6.57,-0.12 7.49,-9.93 2.01,-21.4 -0.08,-90.68 -16.48,-109.28z"/>
   <path class="fil0" d="M206.71 37.61c-5.92,11.49 -2.46,52.53 -1.01,67.53 6.36,65.89 44.9,68.81 111,70.81 2.87,0.09 16.82,0.6 18.67,0.26 10.78,-2.02 5.73,-0.39 8.24,-7.6 -28.14,-9.17 -86.49,5.52 -113.17,-20.54 -16.52,-16.13 -17.19,-61.51 -16.96,-86.41 0.3,-32.95 0.46,-22.27 -6.77,-24.05z"/>
   <path class="fil1" d="M361.46 177.54c-16.16,-2.85 -2.89,-1.12 -8.73,1.99 1.97,8.06 2.83,3.82 9.68,11.05 -7.13,5.23 -9.77,4.95 -8.34,10.68 4.74,2.46 -6.48,3.72 6.78,1.3 6.68,-1.21 15.43,-7.91 19.24,-11.98 -2.61,-4.99 -10.89,-11.67 -18.63,-13.04z"/>
   <path class="fil1" d="M176.74 27.16c2.82,-0.27 1.54,3.77 11.15,-6.03l2.72 -3.09c7.71,10.67 1.28,6.52 10.74,9.28 4.5,-9.17 -4.76,-22.31 -10.74,-27.32 -8.44,4.57 -13,17.65 -13.87,27.16z"/>
  </g>
  <path class="fil1" d="M2020.08 766.98c1.29,2.39 2.86,5.89 6.13,7.53 0.62,0.32 2.42,3.22 10.54,0.28 -0.27,-10.22 -13.83,-22.16 -23.04,-25.08 -8.67,4.88 -21.03,14.73 -21.9,27.08 13.31,-1.88 3.8,-0.16 10.36,-4.09l5.37 -3.85c0.32,-0.99 1.21,-0.94 1.91,-1.32l0.06 230.01 -14.5 -11.48c-28.07,-28.66 -157.56,-159.63 -165.38,-162.85 -6.11,8.54 20.96,29.57 36.5,44.93 15.94,15.75 126.73,120.97 133.47,138.11 -31.56,0.19 -63.14,0.07 -94.7,0.07 -10.68,0 -77.36,-5.44 -77.66,6.14 3.1,2.12 0.85,1.39 6.28,2.69 3.03,0.72 1.63,0.4 4.89,0.72 1.8,0.17 8.47,-0.04 10.7,-0.07l159.82 -0.21c2.51,32.7 -5.63,32.56 9.22,36.71l1.36 -36.57 164.77 -0.23c-6.51,9.55 -9.38,5.05 -8.27,17.77 9.63,-0.85 22.54,-15.1 25.85,-23.42 -5.96,-6.9 -15.6,-20.24 -26.23,-21.16 -0.39,14.56 2.3,7.39 8.17,17.53l-156.15 -0.12 134.47 -134.5c13.69,-13.7 38.9,-33.79 39.63,-46.59 -7.57,-1.96 -10.85,0.5 -16.31,6.25l-166.52 166.84 1.16 -231.12z"/>
  <path class="fil0" d="M1954.63 707.52c0.67,-23.4 2.36,-27.98 -6.6,-30.98l-4.87 16.14c-0.13,-0.38 -0.67,1.39 -1.11,2.02 -11.06,-4.66 -2.39,-7.77 -8.97,-17.89 -6.95,2.57 -8.84,12.76 -5.7,21.77 3.6,10.3 12.63,-1.54 17.88,11.36 -7.96,5.31 -10.48,1.35 -18.08,5.9 4.09,10.66 24.48,9.2 26.9,-1.08 0.48,-2.01 0.49,-5.09 0.55,-7.24z"/>
  <path class="fil0" d="M2069.45 686.25c-8.06,-8.5 -0.99,-9.35 -11.07,-9.31 -2.08,2.95 -1.78,0.71 -1.65,6.05 0.18,7.3 6.03,9.98 6.04,16.35 0.02,9.83 -10.82,10.85 -3.79,22.34 7.85,-0.67 3.52,-2.36 10.47,-9.38 8.12,11.95 0.09,6.23 10.61,9.42 5.53,-12.08 -4.25,-12.17 -4.4,-22.55 -0.14,-9.27 9.43,-11.25 4.4,-22.44 -10.43,3.57 -2.61,-1.62 -10.61,9.52z"/>
  <path class="fil0" d="M2101.17 675.87c-10.76,4.3 -9.48,-7.29 -9.26,23.45 0.14,20.57 -1.85,14.56 4.08,22.69 5.89,-4.03 5.66,5.91 5.39,-22.66 -0.08,-7.89 0.01,-15.97 -0.21,-23.48z"/>
  <path class="fil0" d="M2037.04 707.28c0,2.48 -0.2,5.55 0.23,7.96 0.96,5.29 1.11,3.51 2.98,6.65 8.93,-4.46 3.92,6.47 6.54,-8.96l-0.23 -27.2c-1.4,-14.03 0.58,-4.88 -3.54,-9.35 -9.6,3.41 -5.92,5.45 -5.98,30.9z"/>
  <path class="fil0" d="M2009.42 707.28c-3.46,-2.29 1.64,-1.94 -8.93,-3.76 -20.5,-3.51 -17.86,5.63 -18.69,7.66 4.31,1.83 9.18,2.89 16.13,2.43 14.28,-0.96 7.96,0.01 11.49,-6.33z"/>
  <path class="fil0" d="M2009.37 691.36c-3.62,-6.81 -0.71,-6.64 -14.27,-6.44 -13.52,0.2 -9.76,-0.31 -13.4,7.78 4.97,2.35 5.54,2.55 13.34,2.51 0.85,0 7.18,-0.51 8,-0.68 4.71,-1.01 3.62,-1.41 6.33,-3.17z"/>
  <g id="_2365339197776">
   <path class="fil1" d="M3123.42 1178.01c12.02,-9.72 6.89,-8.97 8.2,-30.45l103.03 0.51c10.13,19.29 -6.8,20.52 13.35,29.69 12.56,-15.79 1.77,-12.71 8.9,-30.22l59.75 1.67c-18.48,14.22 -22.53,34.11 -2.36,24.66 2.34,-1.09 26.48,-23.45 31.35,-35.56 -9.52,-13.47 -24.36,-34.37 -44.2,-36.07 0.5,23.28 7.11,15.55 13.14,29.77l-553.15 0.15 1.36 -554.11c52.17,39.84 24.03,-13.66 -8.65,-29.8 -9.07,4.76 -32.31,24.44 -35.94,33.74 -9.78,25.07 22.94,-0.94 28.25,-4.22l-7.17 60.47c-19.59,6.05 -12.07,-0.46 -23.37,7.17 6.45,14.85 10.26,10.26 30.72,10.11l-0.86 104.61c-12.19,4.31 -21.25,0.81 -30.23,8.82 7.19,16.27 -4.33,1.66 31.06,13.42l-0.1 104.04c-20.24,0.04 -20.39,-3.98 -30.5,7.2 9.37,13.73 -1.88,2.69 12.1,7.52l18.59 5.82 0.04 100.06 -30.01 6.72c6.13,18.96 13.49,4.52 30.46,17.8l-0.4 100.58c-21.32,-0.25 -23.35,-4.81 -31.14,10.34 11.27,8.08 12.19,5.22 30.27,5.06 1.76,28.67 -1.02,23.86 8.23,30.65 9.62,-7.1 6.94,-1.76 8.45,-30.5l106.28 0.5c0.57,24.59 -5.5,22.88 12.6,30.16 11.09,-19.92 2.42,-8.38 3.87,-16.93 1.44,-8.51 -1.11,-3.93 2.27,-13.68l102.34 0.83c6.5,21.16 -7.02,22.65 13.35,28.7 7.16,-11.56 4.31,-14.33 5.09,-29.54l106.37 0.1c1.28,18.08 -4,21.98 8.66,30.21z"/>
   <path class="fil0" d="M3045.36 944.42c-13.22,-27.83 5.43,-54.17 29.2,-37.81 20.6,14.19 9.56,46.43 -29.2,37.81zm52.68 -6.32c18.7,-41.61 -46.83,-73.2 -69.91,-32.51 -27.43,48.4 48.3,80.57 69.91,32.51z"/>
   <path class="fil0" d="M2897.98 844.78c26.5,-17.25 43.99,26.35 23.1,37.96 -21.21,11.79 -41.53,-8.18 -34.6,-25.99 4.54,-11.69 3.09,-6.5 11.5,-11.97zm-27.79 26.58c7.15,45.41 80,37.91 75.67,-12.96 -4.18,-49.15 -84.51,-43.16 -75.67,12.96z"/>
   <path class="fil0" d="M3140.98 661.56c27.37,-19.97 47.45,21.17 26.38,35.74 -23.94,16.57 -53.34,-16.07 -26.38,-35.74zm-25.08 22.94c6,47.96 85.3,41.7 75.44,-12.98 -8.06,-44.73 -81.94,-39.09 -75.44,12.98z"/>
   <path class="fil0" d="M3299.44 764.88c-2.76,38.74 -38.48,33.88 -44.44,10.88 -5.41,-20.89 22.93,-43.71 44.44,-10.88zm-59.29 17.49c11.78,41.8 85.73,30.18 73.77,-20.91 -10.59,-45.22 -88.79,-32.36 -73.77,20.91z"/>
   <path class="fil0" d="M2811.98 1084.23c14.19,-3.03 9.6,-1.13 17.05,-17.85 12.84,-28.8 64.24,-139.25 58.85,-154.32 -16.81,5.29 -19.13,21.88 -26.16,40.09 -12.24,31.68 -56.85,114.93 -49.74,132.08z"/>
   <path class="fil0" d="M3083.38 874.34c13.13,-10.19 56.9,-130.72 53.92,-145.27 -12.58,3.66 -8.72,-1.89 -15.94,15.39l-22.5 58.13c-11.4,28.39 -28.66,60.66 -15.48,71.75z"/>
   <path class="fil0" d="M3296.94 721.24c19.51,-7.86 32.6,-61.27 40.67,-80.78 6.12,-14.79 8.42,-17.59 5.06,-28.4 -12.31,-1.74 -12.03,3.71 -18.71,19.42 -4.24,9.96 -7.87,18.56 -11.68,28.55 -13.58,35.59 -23.79,45.12 -15.34,61.21z"/>
   <path class="fil0" d="M2957.99 884.71c6.84,12.69 -3.27,3.27 11.54,11.52 23.26,12.94 33.88,15.78 42.56,6.27 -7.71,-10.86 -10.3,-9.31 -24.45,-15.19 -38.37,-15.94 -25.33,-5.55 -29.65,-2.6z"/>
   <path class="fil0" d="M3218.5 718.09c-42.91,-29.48 -16.09,22.49 13.03,22.19 0.51,-1.53 19.41,0.1 -13.03,-22.19z"/>
  </g>
  <g id="_2365339901904">
   <path class="fil1" d="M1261.17 704.48c3.19,2.32 0.22,-0.27 4.32,3.57 19.36,18.07 31.54,58.49 32.33,83.6l-123.7 -0.74 87.05 -86.43zm7.79 -7.31c8.4,-12 194.97,-195.31 221.73,-222.79 12.2,-12.53 27.37,-22.72 25.69,-32.42 -9.82,-1.79 -34.88,28.36 -47.59,41.02l-270.7 270.53c-8.23,8 -14.94,14.75 -22.88,22.92 -9.2,9.47 -28.34,22.25 -5.65,24.08 2.18,0.18 7.68,-0.03 10.19,-0.06l320.47 0.04c21.03,0.22 15.61,-1.88 17.46,-4.22 -4.5,-6.57 1.37,-3.72 -9.87,-4.82l-200.97 -0.07c-3.18,-52.35 -16.76,-63.55 -37.88,-94.21z"/>
   <path class="fil0" d="M1407.9 678.55c9.16,-1.37 19.19,-0.85 28.64,-0.67 29.13,0.54 20.88,-0.87 23.23,-6.12 -8.78,-5.54 -48.32,-4.6 -60.29,-1.47 -2.89,16.13 -4.01,45.16 0.56,58.42 13.05,4.49 35.03,0.84 51.08,2.11l0.07 42.67c-9.91,1.01 -20.01,0.76 -30,0.6 -2.24,-0.04 -13.83,-0.35 -15.12,-0.1 -10.4,2.02 -5.57,0.11 -7.46,8.51l58.55 -0.2c1.27,-2.15 1.51,-2.03 2.52,-6.48l-0.1 -54.29 -52.17 -0.64 0.49 -42.34z"/>
   <path class="fil0" d="M1334.86 669.6c-5.62,1.14 -6.99,-2.17 -6.63,17.21 1,54.69 -10.92,43.67 52.45,43.45 0.29,15.7 -1.82,43.76 2.69,52.57 8.34,-3.02 6.42,-2.77 6.51,-14.24l-0.23 -68.88c0,-31.62 2.34,-28.26 -8.34,-31l-1.69 52.59 -42.05 0.15 -2.71 -51.85z"/>
   <path class="fil0" d="M1479.7 654.99c-8.35,-9.77 -7.89,-16.03 8.01,-15.86 4.9,8.33 4.65,15.12 -8.01,15.86zm-14 -3.56c4.37,23.18 39.62,13.46 33.97,-9.46 -5.08,-20.57 -38.3,-13.52 -33.97,9.46z"/>
  </g>
 </g>
</svg>
