<?xml version="1.0" encoding="UTF-8"?>
<!DOCTYPE svg PUBLIC "-//W3C//DTD SVG 1.1//EN" "http://www.w3.org/Graphics/SVG/1.1/DTD/svg11.dtd">
<!-- Creator: CorelDRAW 2020 (64-Bit) -->
<svg xmlns="http://www.w3.org/2000/svg" xml:space="preserve" width="910px" height="1291px" version="1.1" style="shape-rendering:geometricPrecision; text-rendering:geometricPrecision; image-rendering:optimizeQuality; fill-rule:evenodd; clip-rule:evenodd"
viewBox="0 0 27.91 39.58"
 xmlns:xlink="http://www.w3.org/1999/xlink"
 xmlns:xodm="http://www.corel.com/coreldraw/odm/2003">
 <defs>
  <style type="text/css">
   <![CDATA[
    .fil0 {fill:#C3083F}
   ]]>
  </style>
 </defs>
 <g id="Layer_x0020_1">
  <metadata id="CorelCorpID_0Corel-Layer"/>
  <g id="_2365342732832">
   <path class="fil0" d="M1.12 9.38l-0.03 -7.07 25.36 36.14c-0.23,0.02 -23.46,0.35 -24.71,-0.01 -0.76,-0.22 -0.15,0.08 -0.66,-0.35 0.51,-0.93 0.63,-0.18 1.89,-0.83 -0.13,-0.29 0.82,0.06 -0.96,-0.69 -1.08,-0.45 -0.19,0.58 -0.92,-0.43 0.55,-0.99 1.75,-0.27 2.87,-0.49 1.43,-0.27 0.43,0.32 0.96,-0.62 -0.08,-0.05 -0.19,-0.2 -0.23,-0.13 -0.05,0.08 -0.17,-0.08 -0.24,-0.1 -2.04,-0.57 -2.61,0.51 -3.37,-0.61 0.6,-0.93 -0.13,-0.16 0.92,-0.48 2.01,-0.62 0.26,0.31 1.01,-0.33 -0.55,-1.53 -1.09,0.19 -1.93,-1.14 0.52,-0.73 0.5,-0.46 1.73,-0.44 1.37,0.01 1.33,0.14 2.13,-0.4 -0.57,-0.88 -0.41,-0.64 -1.83,-0.62 -0.2,0 -0.99,0.05 -1.13,0.03 -0.83,-0.13 -0.53,0.12 -0.9,-0.52 0.65,-0.82 -0.32,0.03 1.17,-0.51l0.76 -0.33c-0.92,-1.28 -1.38,-0.03 -1.92,-1.11 0.71,-0.6 1,-0.39 2.32,-0.4 1.09,-0.01 1.13,0.15 1.54,-0.65 -0.73,-0.5 -3.35,-0.42 -3.44,-0.45l-0.42 -0.18c0.35,-0.86 -0.22,-0.22 1.11,-0.71 0.65,-0.24 0.51,0.17 0.8,-0.63 -0.74,-0.4 -0.64,-0.12 -1.03,-0.26 -0.86,-0.3 -0.53,0.19 -0.88,-0.63 0.77,-0.54 0.67,-0.31 2.32,-0.34 1.14,-0.01 1.2,0.21 1.5,-0.65 -1.04,-0.7 -1.74,-0.13 -2.92,-0.33 -1.02,-0.17 -0.35,0.06 -0.9,-0.35 0.47,-1.07 0.83,-0.27 1.89,-0.9 -0.27,-0.82 -0.14,-0.39 -0.78,-0.62 -1.2,-0.43 -0.78,0.16 -1.1,-0.71l2.01 -0.28c1.18,-0.01 1.07,0.19 1.81,-0.36 -0.36,-0.85 -0.38,-0.64 -1.51,-0.65l-1.67 -0.06c-0.73,-0.19 -0.17,0.06 -0.66,-0.32 0.36,-0.72 -0.11,-0.3 0.67,-0.53 0.23,-0.07 0.98,-0.05 1.28,-0.06 -0.44,-1.24 0.03,-0.46 -1.01,-0.98 -0.56,-0.27 -0.14,0.57 -0.94,-0.38 0.55,-1.05 1.65,-0.32 2.87,-0.54 1.28,-0.22 0.43,0.25 0.99,-0.58 -1.58,-1.12 -2.95,0.35 -3.85,-0.83 0.66,-1.16 1.01,-0.1 1.93,-0.84 -0.41,-1.29 -1.15,0 -1.94,-1.12 0.26,-0.4 -0.04,-0.49 1.73,-0.48 1.88,0.01 1.59,0.13 2.14,-0.37 -0.38,-0.92 -0.45,-0.65 -1.84,-0.63 -2.46,0.03 -1.66,0.11 -2.03,-0.47 0.42,-0.6 -0.02,-0.14 0.68,-0.4 0.08,-0.04 0.38,-0.11 0.48,-0.14l0.76 -0.29c-0.55,-0.89 -1.13,-0.47 -1.88,-0.84zm-0.74 -9.38c-0.68,1.48 -0.24,29.34 -0.24,33.63 0,6.93 -0.59,5.89 2.68,5.85 1.83,-0.01 24.51,0.4 25.08,-0.36 0.28,-0.38 -6.39,-9.81 -7.44,-11.13l-7.86 -11.1c-1.18,-1.66 -10.84,-16.48 -12.22,-16.89z"/>
   <path class="fil0" d="M6.88 20.64c0.14,0.09 1.81,2.25 2.09,2.66 0.4,0.61 0.43,0.82 0.97,1.54l5.43 7.87 -8.45 -0.01 -0.04 -12.06zm-0.81 -2.13c-0.5,1.44 -0.16,12.14 -0.15,15.04 1.67,0.18 9.03,0.4 10.27,0.12 0.57,-0.13 0.39,-0.09 0.7,-0.28 0.04,-0.51 -9.58,-14.58 -10.33,-14.86 -0.37,-0.14 -0.33,-0.06 -0.49,-0.02z"/>
  </g>
 </g>
</svg>
