<?xml version="1.0" encoding="UTF-8"?>
<!DOCTYPE svg PUBLIC "-//W3C//DTD SVG 1.1//EN" "http://www.w3.org/Graphics/SVG/1.1/DTD/svg11.dtd">
<!-- Creator: CorelDRAW 2020 (64-Bit) -->
<svg xmlns="http://www.w3.org/2000/svg" xml:space="preserve" width="1596px" height="205px" version="1.1" style="shape-rendering:geometricPrecision; text-rendering:geometricPrecision; image-rendering:optimizeQuality; fill-rule:evenodd; clip-rule:evenodd"
viewBox="0 0 135.38 17.42"
 xmlns:xlink="http://www.w3.org/1999/xlink"
 xmlns:xodm="http://www.corel.com/coreldraw/odm/2003">
 <defs>
  <style type="text/css">
   <![CDATA[
    .fil0 {fill:#C3083F}
   ]]>
  </style>
 </defs>
 <g id="Layer_x0020_1">
  <metadata id="CorelCorpID_0Corel-Layer"/>
  <path class="fil0" d="M118.77 6.13c0.01,0.02 0.18,2.84 0.18,2.9 0,0.04 -0.23,2.72 -0.24,2.76 -0.41,2.02 -0.21,0.84 -0.98,1.92 -2.61,-0.91 -2.36,0.71 -2.41,-4.69 -0.06,-6.23 -0.14,-4.1 2.41,-5.24 0.55,0.93 0.65,0.52 1.04,2.35zm-92.05 6.94c-0.11,-0.28 -0.43,-0.22 -0.62,-0.38 1.57,-2.59 5.35,-2.32 9.45,-2.33l68.83 0.04c8.53,-0.18 7,0.16 7.8,2.42 -3.5,1.9 -64.16,1.13 -76.64,1.02 -1.32,-0.01 -8.37,0.34 -8.82,-0.77zm95.35 -9.31l5.23 -0.14 4.64 0.75 -0.58 9.17 -9.2 0.19 -0.09 -9.97zm-114.23 5.27c2.27,-1.68 6.58,-2.98 9.57,-3.91 5.27,-1.63 6.25,0.21 8.07,4.07l-4.39 4.32 -13.25 -4.48zm18.58 -3.29c2.18,-2.3 -3.47,-2.1 11.04,-2l66.92 -0.04c10.49,-0.22 7.52,0.21 7.7,3.32l-62.2 0c-7.19,0 -18.77,1.62 -23.46,-1.28zm-23.47 5.32c0.63,0.29 2.71,0.95 3.56,1.22 9.79,3.17 12.05,4.64 22.35,4.68 18.48,0.07 98.33,1.42 105.55,-0.84 1.24,-4.32 1.24,-10.27 0.31,-14.65 -6.21,-2.52 -59.54,-1.04 -71.46,-1.05 -11.34,-0.01 -56.89,-2.46 -63.26,8.58l2.95 2.06z"/>
 </g>
</svg>
