<?xml version="1.0" encoding="UTF-8"?>
<!DOCTYPE svg PUBLIC "-//W3C//DTD SVG 1.1//EN" "http://www.w3.org/Graphics/SVG/1.1/DTD/svg11.dtd">
<!-- Creator: CorelDRAW 2020 (64-Bit) -->
<svg xmlns="http://www.w3.org/2000/svg" xml:space="preserve" width="1177px" height="1180px" version="1.1" style="shape-rendering:geometricPrecision; text-rendering:geometricPrecision; image-rendering:optimizeQuality; fill-rule:evenodd; clip-rule:evenodd"
viewBox="0 0 40.76 40.88"
 xmlns:xlink="http://www.w3.org/1999/xlink"
 xmlns:xodm="http://www.corel.com/coreldraw/odm/2003">
 <defs>
  <style type="text/css">
   <![CDATA[
    .fil0 {fill:#6F2232}
    .fil1 {fill:#C3083F}
   ]]>
  </style>
 </defs>
 <g id="Layer_x0020_1">
  <metadata id="CorelCorpID_0Corel-Layer"/>
  <path class="fil0" d="M17.82 5.03l0.05 17.62c1.63,0.65 16.18,0.32 17.82,0.3 0.52,6 -4.33,12.87 -10.19,15.35 -4.84,2.04 -10.88,2.15 -15.56,-0.65 -1.25,-0.75 -3.15,-2.05 -3.86,-2.76 -4.88,-4.89 -6.51,-13.09 -3.66,-19.38 2.83,-6.26 8.27,-10.09 15.4,-10.48zm1.02 -1.02c-7.83,-0.09 -14.08,4.05 -17.31,10.92 -3.07,6.51 -1.38,15.66 3.81,20.68 0.74,0.72 2.76,2.19 4.04,2.9 1.55,0.88 3.16,1.5 4.99,1.9 7.98,1.74 14.78,-1.47 19.26,-7.79 1.9,-2.69 3.49,-6.53 3.08,-10.52 -2.18,-0.54 -14.75,-0.24 -17.85,-0.15l-0.02 -17.94z"/>
  <path class="fil1" d="M22.86 1.07c4.77,0.12 6.58,1.41 9.69,3.32 0.99,0.6 1.38,1.03 2.17,1.85 2.97,3.09 4.88,7.01 5.02,11.68l-16.87 0.03 -0.01 -16.88zm-0.95 17.72c2.82,0.64 15.05,0.16 18.84,0.16 0.12,-4.79 -1.14,-7.52 -3.33,-11.07 -2.72,-4.42 -10.57,-8.85 -15.54,-7.69l0.03 18.6z"/>
 </g>
</svg>
